<?xml version="1.0" encoding="iso-8859-1"?>
<!-- Generator: Adobe Illustrator 19.0.0, SVG Export Plug-In . SVG Version: 6.00 Build 0)  -->
<svg version="1.1" id="Layer_1" xmlns="http://www.w3.org/2000/svg" xmlns:xlink="http://www.w3.org/1999/xlink" x="0px" y="0px"
	 viewBox="0 0 512 512" style="enable-background:new 0 0 512 512;" xml:space="preserve">
<polygon style="fill:#D4D4D4;" points="512,155.751 235.101,134.852 256,457.453 314.282,457.453 375.412,436.554 436.539,457.453 
	512,457.453 "/>
<polygon style="fill:#EDEDED;" points="0,155.751 0,457.453 256,457.453 256,134.852 "/>
<polygon style="fill:#027ACD;" points="225.85,259.264 128,259.264 107.101,326.019 128,392.773 225.85,392.773 "/>
<rect x="30.149" y="259.26" style="fill:#3EAFF5;" width="97.855" height="133.507"/>
<g>
	<polygon style="fill:#7ACDFF;" points="123.542,259.264 30.149,352.657 30.149,392.773 34.365,392.773 167.873,259.264 	"/>
	<polygon style="fill:#7ACDFF;" points="225.85,259.264 225.476,259.264 91.968,392.773 136.299,392.773 225.85,303.221 	"/>
</g>
<polygon style="fill:#F17A00;" points="436.54,259.264 375.411,259.264 354.512,358.359 375.411,457.453 436.54,457.453 "/>
<rect x="314.284" y="259.26" style="fill:#FF9500;" width="61.127" height="198.186"/>
<path style="fill:#D61322;" d="M512,155.751l-57.47-20.899l20.899,74.153h1.171c19.551,0,35.4-15.849,35.4-35.4V155.751L512,155.751
	z"/>
<path style="fill:#EC2533;" d="M438.857,155.751v17.854c0,19.551,15.849,35.4,35.401,35.4h1.17v-74.153L438.857,155.751z"/>
<polygon style="fill:#C2000A;" points="512,155.751 512,54.547 475.429,54.547 454.53,109.714 475.429,155.751 "/>
<polygon style="fill:#D61322;" points="475.429,54.547 438.857,54.547 417.958,109.714 438.857,155.751 438.857,155.751 
	475.429,155.751 "/>
<path style="fill:#FFC222;" d="M438.857,155.751l-57.47-20.899l20.899,74.153h1.171c19.551,0,35.4-15.849,35.4-35.4V155.751
	L438.857,155.751z"/>
<path style="fill:#FEDF77;" d="M365.714,155.751v17.854c0,19.551,15.849,35.4,35.401,35.4h1.17v-74.153L365.714,155.751z"/>
<polygon style="fill:#FF9500;" points="438.857,155.751 438.857,54.547 402.286,54.547 381.387,109.714 402.286,155.751 "/>
<polygon style="fill:#FFC222;" points="402.286,54.547 365.714,54.547 344.815,109.714 365.714,155.751 365.714,155.751 
	402.286,155.751 "/>
<path style="fill:#D61322;" d="M365.714,155.751l-57.47-20.899l20.899,74.153h1.171c19.551,0,35.4-15.849,35.4-35.4V155.751
	L365.714,155.751z"/>
<path style="fill:#EC2533;" d="M292.571,155.751v17.854c0,19.551,15.849,35.4,35.401,35.4h1.17v-74.153L292.571,155.751z"/>
<polygon style="fill:#C2000A;" points="365.714,155.751 365.714,54.547 329.143,54.547 308.244,109.714 329.143,155.751 "/>
<polygon style="fill:#D61322;" points="329.143,54.547 292.571,54.547 271.672,109.714 292.571,155.751 292.571,155.751 
	329.143,155.751 "/>
<path style="fill:#FFC222;" d="M292.571,155.751l-57.47-20.899L256,209.006h1.171c19.551,0,35.4-15.849,35.4-35.4V155.751
	L292.571,155.751z"/>
<path style="fill:#FEDF77;" d="M219.429,155.751v17.854c0,19.551,15.849,35.4,35.401,35.4H256v-74.153L219.429,155.751z"/>
<polygon style="fill:#FF9500;" points="292.571,155.751 292.571,54.547 256,54.547 235.1,109.714 256,155.751 "/>
<polygon style="fill:#FFC222;" points="256,54.547 219.429,54.547 198.53,109.714 219.429,155.751 219.429,155.751 256,155.751 "/>
<path style="fill:#D61322;" d="M219.429,155.751l-57.47-20.899l20.899,74.153h1.171c19.551,0,35.4-15.849,35.4-35.4V155.751
	L219.429,155.751z"/>
<path style="fill:#EC2533;" d="M146.286,155.751v17.854c0,19.551,15.849,35.4,35.401,35.4h1.17v-74.153L146.286,155.751z"/>
<polygon style="fill:#C2000A;" points="219.429,155.751 219.429,54.547 182.857,54.547 161.957,109.714 182.857,155.751 "/>
<polygon style="fill:#D61322;" points="182.857,54.547 146.286,54.547 125.387,109.714 146.286,155.751 146.286,155.751 
	182.857,155.751 "/>
<path style="fill:#FFC222;" d="M146.286,155.751l-57.47-20.899l20.899,74.153h1.171c19.551,0,35.4-15.849,35.4-35.4V155.751
	L146.286,155.751z"/>
<path style="fill:#FEDF77;" d="M73.143,155.751v17.854c0,19.551,15.849,35.4,35.401,35.4h1.17v-74.153L73.143,155.751z"/>
<polygon style="fill:#FF9500;" points="146.286,155.751 146.286,54.547 109.714,54.547 88.814,109.714 109.714,155.751 "/>
<polygon style="fill:#FFC222;" points="109.714,54.547 73.143,54.547 52.244,109.714 73.143,155.751 73.143,155.751 
	109.714,155.751 "/>
<path style="fill:#D61322;" d="M73.143,155.751l-57.47-20.899l20.899,74.153h1.171c19.551,0,35.4-15.849,35.4-35.4V155.751
	L73.143,155.751z"/>
<path style="fill:#EC2533;" d="M0,155.751v17.854c0,19.551,15.849,35.4,35.401,35.4h1.17v-74.153L0,155.751z"/>
<polygon style="fill:#C2000A;" points="73.143,155.751 73.143,54.547 36.571,54.547 15.671,109.714 36.571,155.751 "/>
<polygon style="fill:#D61322;" points="36.571,54.547 0,54.547 0,155.751 0,155.751 36.571,155.751 "/>
<g>
</g>
<g>
</g>
<g>
</g>
<g>
</g>
<g>
</g>
<g>
</g>
<g>
</g>
<g>
</g>
<g>
</g>
<g>
</g>
<g>
</g>
<g>
</g>
<g>
</g>
<g>
</g>
<g>
</g>
</svg>
